<mxfile host="app.diagrams.net" modified="2023-06-10T10:07:42.758Z" agent="Mozilla/5.0 (Windows NT 10.0; Win64; x64) AppleWebKit/537.36 (KHTML, like Gecko) Chrome/114.0.0.0 Safari/537.36 Edg/114.0.1823.43" etag="GW-hgXcoomSdrgZsHJAb" version="21.3.7" type="github">
  <diagram name="Page-1" id="b5b7bab2-c9e2-2cf4-8b2a-24fd1a2a6d21">
    <mxGraphModel dx="2154" dy="1184" grid="1" gridSize="10" guides="1" tooltips="1" connect="1" arrows="1" fold="1" page="1" pageScale="1" pageWidth="827" pageHeight="1169" background="none" math="0" shadow="0">
      <root>
        <mxCell id="0" />
        <mxCell id="1" parent="0" />
        <mxCell id="em-ObhwTOqatW9LkcrSO-1" value="Retrieve News" style="shape=umlFrame;whiteSpace=wrap;html=1;pointerEvents=0;width=110;height=30;" vertex="1" parent="1">
          <mxGeometry x="880" y="160" width="560" height="400" as="geometry" />
        </mxCell>
        <mxCell id="em-ObhwTOqatW9LkcrSO-57" style="edgeStyle=orthogonalEdgeStyle;rounded=0;orthogonalLoop=1;jettySize=auto;html=1;" edge="1" parent="1" source="em-ObhwTOqatW9LkcrSO-5" target="em-ObhwTOqatW9LkcrSO-56">
          <mxGeometry relative="1" as="geometry" />
        </mxCell>
        <mxCell id="em-ObhwTOqatW9LkcrSO-5" value="Calling news API" style="whiteSpace=wrap;html=1;align=center;" vertex="1" parent="1">
          <mxGeometry x="1085" y="380" width="100" height="40" as="geometry" />
        </mxCell>
        <mxCell id="em-ObhwTOqatW9LkcrSO-8" value="Summarize News" style="shape=umlFrame;whiteSpace=wrap;html=1;pointerEvents=0;width=110;height=30;" vertex="1" parent="1">
          <mxGeometry x="880" y="640" width="560" height="400" as="geometry" />
        </mxCell>
        <mxCell id="em-ObhwTOqatW9LkcrSO-51" style="edgeStyle=orthogonalEdgeStyle;rounded=0;orthogonalLoop=1;jettySize=auto;html=1;" edge="1" parent="1" source="em-ObhwTOqatW9LkcrSO-9" target="em-ObhwTOqatW9LkcrSO-48">
          <mxGeometry relative="1" as="geometry" />
        </mxCell>
        <mxCell id="em-ObhwTOqatW9LkcrSO-52" style="edgeStyle=orthogonalEdgeStyle;rounded=0;orthogonalLoop=1;jettySize=auto;html=1;" edge="1" parent="1" source="em-ObhwTOqatW9LkcrSO-9" target="em-ObhwTOqatW9LkcrSO-50">
          <mxGeometry relative="1" as="geometry" />
        </mxCell>
        <mxCell id="em-ObhwTOqatW9LkcrSO-9" value="Retrieve daily news" style="whiteSpace=wrap;html=1;align=center;" vertex="1" parent="1">
          <mxGeometry x="1090" y="640" width="100" height="40" as="geometry" />
        </mxCell>
        <mxCell id="em-ObhwTOqatW9LkcrSO-10" value="Categorize News" style="shape=umlFrame;whiteSpace=wrap;html=1;pointerEvents=0;width=110;height=30;" vertex="1" parent="1">
          <mxGeometry x="1520" y="160" width="560" height="400" as="geometry" />
        </mxCell>
        <mxCell id="em-ObhwTOqatW9LkcrSO-60" style="edgeStyle=orthogonalEdgeStyle;rounded=0;orthogonalLoop=1;jettySize=auto;html=1;" edge="1" parent="1" source="em-ObhwTOqatW9LkcrSO-11" target="em-ObhwTOqatW9LkcrSO-59">
          <mxGeometry relative="1" as="geometry" />
        </mxCell>
        <mxCell id="em-ObhwTOqatW9LkcrSO-11" value="Retrieve daily news" style="whiteSpace=wrap;html=1;align=center;" vertex="1" parent="1">
          <mxGeometry x="1760" y="160" width="100" height="40" as="geometry" />
        </mxCell>
        <mxCell id="em-ObhwTOqatW9LkcrSO-12" value="Recommendation System&amp;nbsp;" style="shape=umlFrame;whiteSpace=wrap;html=1;pointerEvents=0;width=180;height=30;" vertex="1" parent="1">
          <mxGeometry x="1520" y="640" width="560" height="400" as="geometry" />
        </mxCell>
        <mxCell id="em-ObhwTOqatW9LkcrSO-19" style="edgeStyle=orthogonalEdgeStyle;rounded=0;orthogonalLoop=1;jettySize=auto;html=1;" edge="1" parent="1" source="em-ObhwTOqatW9LkcrSO-13" target="em-ObhwTOqatW9LkcrSO-17">
          <mxGeometry relative="1" as="geometry" />
        </mxCell>
        <mxCell id="em-ObhwTOqatW9LkcrSO-13" value="Receive User&#39;s feedback" style="whiteSpace=wrap;html=1;align=center;" vertex="1" parent="1">
          <mxGeometry x="1770" y="640" width="130" height="60" as="geometry" />
        </mxCell>
        <mxCell id="em-ObhwTOqatW9LkcrSO-14" value="Collection Manager" style="shape=umlFrame;whiteSpace=wrap;html=1;pointerEvents=0;width=130;height=30;" vertex="1" parent="1">
          <mxGeometry x="2160" y="160" width="560" height="400" as="geometry" />
        </mxCell>
        <mxCell id="em-ObhwTOqatW9LkcrSO-25" style="edgeStyle=orthogonalEdgeStyle;rounded=0;orthogonalLoop=1;jettySize=auto;html=1;entryX=0;entryY=0.5;entryDx=0;entryDy=0;" edge="1" parent="1" source="em-ObhwTOqatW9LkcrSO-15" target="em-ObhwTOqatW9LkcrSO-24">
          <mxGeometry relative="1" as="geometry" />
        </mxCell>
        <mxCell id="em-ObhwTOqatW9LkcrSO-35" style="edgeStyle=orthogonalEdgeStyle;rounded=0;orthogonalLoop=1;jettySize=auto;html=1;" edge="1" parent="1" source="em-ObhwTOqatW9LkcrSO-15" target="em-ObhwTOqatW9LkcrSO-22">
          <mxGeometry relative="1" as="geometry" />
        </mxCell>
        <mxCell id="em-ObhwTOqatW9LkcrSO-15" value="Create group" style="whiteSpace=wrap;html=1;align=center;" vertex="1" parent="1">
          <mxGeometry x="2160" y="240" width="100" height="40" as="geometry" />
        </mxCell>
        <mxCell id="em-ObhwTOqatW9LkcrSO-41" style="edgeStyle=orthogonalEdgeStyle;rounded=0;orthogonalLoop=1;jettySize=auto;html=1;entryX=1;entryY=0.5;entryDx=0;entryDy=0;" edge="1" parent="1" source="em-ObhwTOqatW9LkcrSO-17" target="em-ObhwTOqatW9LkcrSO-40">
          <mxGeometry relative="1" as="geometry" />
        </mxCell>
        <mxCell id="em-ObhwTOqatW9LkcrSO-17" value="Increase/Decrease content of the corresponding category (weightage)&amp;nbsp;" style="whiteSpace=wrap;html=1;align=center;" vertex="1" parent="1">
          <mxGeometry x="1654" y="835" width="136" height="70" as="geometry" />
        </mxCell>
        <mxCell id="em-ObhwTOqatW9LkcrSO-20" value="Save item base on UserId" style="text;strokeColor=none;fillColor=none;spacingLeft=4;spacingRight=4;overflow=hidden;rotatable=0;points=[[0,0.5],[1,0.5]];portConstraint=eastwest;fontSize=12;whiteSpace=wrap;html=1;" vertex="1" parent="1">
          <mxGeometry x="1980" y="640" width="100" height="70" as="geometry" />
        </mxCell>
        <mxCell id="em-ObhwTOqatW9LkcrSO-23" style="edgeStyle=orthogonalEdgeStyle;rounded=0;orthogonalLoop=1;jettySize=auto;html=1;entryX=0;entryY=0.5;entryDx=0;entryDy=0;" edge="1" parent="1" source="em-ObhwTOqatW9LkcrSO-21" target="em-ObhwTOqatW9LkcrSO-22">
          <mxGeometry relative="1" as="geometry" />
        </mxCell>
        <mxCell id="em-ObhwTOqatW9LkcrSO-26" style="edgeStyle=orthogonalEdgeStyle;rounded=0;orthogonalLoop=1;jettySize=auto;html=1;entryX=1;entryY=0.5;entryDx=0;entryDy=0;" edge="1" parent="1" source="em-ObhwTOqatW9LkcrSO-21" target="em-ObhwTOqatW9LkcrSO-27">
          <mxGeometry relative="1" as="geometry">
            <Array as="points">
              <mxPoint x="2470" y="870" />
            </Array>
          </mxGeometry>
        </mxCell>
        <mxCell id="em-ObhwTOqatW9LkcrSO-21" value="Saved news to individual account" style="whiteSpace=wrap;html=1;align=center;" vertex="1" parent="1">
          <mxGeometry x="2400" y="160" width="140" height="60" as="geometry" />
        </mxCell>
        <mxCell id="em-ObhwTOqatW9LkcrSO-22" value="User Account" style="shape=datastore;whiteSpace=wrap;html=1;" vertex="1" parent="1">
          <mxGeometry x="2620" y="360" width="60" height="60" as="geometry" />
        </mxCell>
        <mxCell id="em-ObhwTOqatW9LkcrSO-24" value="Group Data" style="shape=datastore;whiteSpace=wrap;html=1;" vertex="1" parent="1">
          <mxGeometry x="2390" y="310" width="60" height="60" as="geometry" />
        </mxCell>
        <mxCell id="em-ObhwTOqatW9LkcrSO-28" style="edgeStyle=orthogonalEdgeStyle;rounded=0;orthogonalLoop=1;jettySize=auto;html=1;entryX=1;entryY=0.5;entryDx=0;entryDy=0;" edge="1" parent="1" source="em-ObhwTOqatW9LkcrSO-27" target="em-ObhwTOqatW9LkcrSO-17">
          <mxGeometry relative="1" as="geometry" />
        </mxCell>
        <mxCell id="em-ObhwTOqatW9LkcrSO-27" value="Receive user&#39;s saved news" style="whiteSpace=wrap;html=1;align=center;" vertex="1" parent="1">
          <mxGeometry x="1950" y="840" width="130" height="60" as="geometry" />
        </mxCell>
        <mxCell id="em-ObhwTOqatW9LkcrSO-30" style="edgeStyle=orthogonalEdgeStyle;rounded=0;orthogonalLoop=1;jettySize=auto;html=1;entryX=0;entryY=0.5;entryDx=0;entryDy=0;" edge="1" parent="1" source="em-ObhwTOqatW9LkcrSO-29" target="em-ObhwTOqatW9LkcrSO-24">
          <mxGeometry relative="1" as="geometry">
            <Array as="points">
              <mxPoint x="2330" y="360" />
              <mxPoint x="2330" y="340" />
            </Array>
          </mxGeometry>
        </mxCell>
        <mxCell id="em-ObhwTOqatW9LkcrSO-29" value="Saved news to group" style="whiteSpace=wrap;html=1;align=center;" vertex="1" parent="1">
          <mxGeometry x="2160" y="330" width="140" height="60" as="geometry" />
        </mxCell>
        <mxCell id="em-ObhwTOqatW9LkcrSO-31" value="User Account" style="swimlane;fontStyle=0;childLayout=stackLayout;horizontal=1;startSize=30;horizontalStack=0;resizeParent=1;resizeParentMax=0;resizeLast=0;collapsible=1;marginBottom=0;whiteSpace=wrap;html=1;" vertex="1" parent="1">
          <mxGeometry x="2750" y="320" width="140" height="120" as="geometry" />
        </mxCell>
        <mxCell id="em-ObhwTOqatW9LkcrSO-32" value="groupId: Int" style="text;strokeColor=none;fillColor=none;align=left;verticalAlign=middle;spacingLeft=4;spacingRight=4;overflow=hidden;points=[[0,0.5],[1,0.5]];portConstraint=eastwest;rotatable=0;whiteSpace=wrap;html=1;" vertex="1" parent="em-ObhwTOqatW9LkcrSO-31">
          <mxGeometry y="30" width="140" height="30" as="geometry" />
        </mxCell>
        <mxCell id="em-ObhwTOqatW9LkcrSO-33" value="Item 2" style="text;strokeColor=none;fillColor=none;align=left;verticalAlign=middle;spacingLeft=4;spacingRight=4;overflow=hidden;points=[[0,0.5],[1,0.5]];portConstraint=eastwest;rotatable=0;whiteSpace=wrap;html=1;" vertex="1" parent="em-ObhwTOqatW9LkcrSO-31">
          <mxGeometry y="60" width="140" height="30" as="geometry" />
        </mxCell>
        <mxCell id="em-ObhwTOqatW9LkcrSO-34" value="Item 3" style="text;strokeColor=none;fillColor=none;align=left;verticalAlign=middle;spacingLeft=4;spacingRight=4;overflow=hidden;points=[[0,0.5],[1,0.5]];portConstraint=eastwest;rotatable=0;whiteSpace=wrap;html=1;" vertex="1" parent="em-ObhwTOqatW9LkcrSO-31">
          <mxGeometry y="90" width="140" height="30" as="geometry" />
        </mxCell>
        <mxCell id="em-ObhwTOqatW9LkcrSO-37" style="edgeStyle=orthogonalEdgeStyle;rounded=0;orthogonalLoop=1;jettySize=auto;html=1;" edge="1" parent="1" source="em-ObhwTOqatW9LkcrSO-36" target="em-ObhwTOqatW9LkcrSO-24">
          <mxGeometry relative="1" as="geometry" />
        </mxCell>
        <mxCell id="em-ObhwTOqatW9LkcrSO-38" style="edgeStyle=orthogonalEdgeStyle;rounded=0;orthogonalLoop=1;jettySize=auto;html=1;entryX=0.5;entryY=1;entryDx=0;entryDy=0;" edge="1" parent="1" source="em-ObhwTOqatW9LkcrSO-36" target="em-ObhwTOqatW9LkcrSO-22">
          <mxGeometry relative="1" as="geometry" />
        </mxCell>
        <mxCell id="em-ObhwTOqatW9LkcrSO-36" value="Add member into group" style="whiteSpace=wrap;html=1;align=center;" vertex="1" parent="1">
          <mxGeometry x="2160" y="450" width="100" height="40" as="geometry" />
        </mxCell>
        <mxCell id="em-ObhwTOqatW9LkcrSO-39" value="Prepare news" style="whiteSpace=wrap;html=1;align=center;" vertex="1" parent="1">
          <mxGeometry x="1654" y="980" width="130" height="60" as="geometry" />
        </mxCell>
        <mxCell id="em-ObhwTOqatW9LkcrSO-42" style="edgeStyle=orthogonalEdgeStyle;rounded=0;orthogonalLoop=1;jettySize=auto;html=1;entryX=0.5;entryY=0;entryDx=0;entryDy=0;" edge="1" parent="1" source="em-ObhwTOqatW9LkcrSO-40" target="em-ObhwTOqatW9LkcrSO-39">
          <mxGeometry relative="1" as="geometry">
            <Array as="points">
              <mxPoint x="1570" y="940" />
              <mxPoint x="1719" y="940" />
            </Array>
          </mxGeometry>
        </mxCell>
        <mxCell id="em-ObhwTOqatW9LkcrSO-40" value="Model" style="shape=datastore;whiteSpace=wrap;html=1;" vertex="1" parent="1">
          <mxGeometry x="1540" y="840" width="60" height="60" as="geometry" />
        </mxCell>
        <mxCell id="em-ObhwTOqatW9LkcrSO-46" style="edgeStyle=orthogonalEdgeStyle;rounded=0;orthogonalLoop=1;jettySize=auto;html=1;" edge="1" parent="1" source="em-ObhwTOqatW9LkcrSO-43" target="em-ObhwTOqatW9LkcrSO-5">
          <mxGeometry relative="1" as="geometry" />
        </mxCell>
        <mxCell id="em-ObhwTOqatW9LkcrSO-43" value="Prepare keyword for retrieval of news" style="whiteSpace=wrap;html=1;align=center;" vertex="1" parent="1">
          <mxGeometry x="1075" y="280" width="120" height="60" as="geometry" />
        </mxCell>
        <mxCell id="em-ObhwTOqatW9LkcrSO-45" style="edgeStyle=orthogonalEdgeStyle;rounded=0;orthogonalLoop=1;jettySize=auto;html=1;" edge="1" parent="1" source="em-ObhwTOqatW9LkcrSO-44" target="em-ObhwTOqatW9LkcrSO-43">
          <mxGeometry relative="1" as="geometry" />
        </mxCell>
        <mxCell id="em-ObhwTOqatW9LkcrSO-44" value="Receive User&#39;s feedback" style="whiteSpace=wrap;html=1;align=center;" vertex="1" parent="1">
          <mxGeometry x="1070" y="160" width="130" height="60" as="geometry" />
        </mxCell>
        <mxCell id="em-ObhwTOqatW9LkcrSO-53" style="edgeStyle=orthogonalEdgeStyle;rounded=0;orthogonalLoop=1;jettySize=auto;html=1;entryX=0.5;entryY=0;entryDx=0;entryDy=0;" edge="1" parent="1" source="em-ObhwTOqatW9LkcrSO-47" target="em-ObhwTOqatW9LkcrSO-11">
          <mxGeometry relative="1" as="geometry">
            <Array as="points">
              <mxPoint x="1480" y="300" />
              <mxPoint x="1480" y="80" />
              <mxPoint x="1810" y="80" />
            </Array>
          </mxGeometry>
        </mxCell>
        <mxCell id="em-ObhwTOqatW9LkcrSO-64" style="edgeStyle=orthogonalEdgeStyle;rounded=0;orthogonalLoop=1;jettySize=auto;html=1;" edge="1" parent="1" source="em-ObhwTOqatW9LkcrSO-47" target="em-ObhwTOqatW9LkcrSO-9">
          <mxGeometry relative="1" as="geometry">
            <Array as="points">
              <mxPoint x="1480" y="300" />
              <mxPoint x="1480" y="600" />
              <mxPoint x="1140" y="600" />
            </Array>
          </mxGeometry>
        </mxCell>
        <mxCell id="em-ObhwTOqatW9LkcrSO-47" value="Output daily news" style="whiteSpace=wrap;html=1;align=center;" vertex="1" parent="1">
          <mxGeometry x="1340" y="280" width="100" height="40" as="geometry" />
        </mxCell>
        <mxCell id="em-ObhwTOqatW9LkcrSO-48" value="Generate short summary" style="whiteSpace=wrap;html=1;align=center;" vertex="1" parent="1">
          <mxGeometry x="1010" y="780" width="100" height="40" as="geometry" />
        </mxCell>
        <mxCell id="em-ObhwTOqatW9LkcrSO-50" value="Generate long summary" style="whiteSpace=wrap;html=1;align=center;" vertex="1" parent="1">
          <mxGeometry x="1185" y="820" width="100" height="40" as="geometry" />
        </mxCell>
        <mxCell id="em-ObhwTOqatW9LkcrSO-54" value="Output daily categorise news" style="whiteSpace=wrap;html=1;align=center;" vertex="1" parent="1">
          <mxGeometry x="1760" y="520" width="100" height="40" as="geometry" />
        </mxCell>
        <mxCell id="em-ObhwTOqatW9LkcrSO-58" style="edgeStyle=orthogonalEdgeStyle;rounded=0;orthogonalLoop=1;jettySize=auto;html=1;entryX=0;entryY=0.5;entryDx=0;entryDy=0;" edge="1" parent="1" source="em-ObhwTOqatW9LkcrSO-56" target="em-ObhwTOqatW9LkcrSO-47">
          <mxGeometry relative="1" as="geometry" />
        </mxCell>
        <mxCell id="em-ObhwTOqatW9LkcrSO-56" value="" style="shape=datastore;whiteSpace=wrap;html=1;" vertex="1" parent="1">
          <mxGeometry x="1260" y="400" width="60" height="60" as="geometry" />
        </mxCell>
        <mxCell id="em-ObhwTOqatW9LkcrSO-61" style="edgeStyle=orthogonalEdgeStyle;rounded=0;orthogonalLoop=1;jettySize=auto;html=1;" edge="1" parent="1" source="em-ObhwTOqatW9LkcrSO-59" target="em-ObhwTOqatW9LkcrSO-54">
          <mxGeometry relative="1" as="geometry" />
        </mxCell>
        <mxCell id="em-ObhwTOqatW9LkcrSO-59" value="Categorize news" style="whiteSpace=wrap;html=1;align=center;" vertex="1" parent="1">
          <mxGeometry x="1750" y="290" width="120" height="60" as="geometry" />
        </mxCell>
        <mxCell id="em-ObhwTOqatW9LkcrSO-62" value="Output news" style="whiteSpace=wrap;html=1;align=center;" vertex="1" parent="1">
          <mxGeometry x="1250" y="1000" width="100" height="40" as="geometry" />
        </mxCell>
        <mxCell id="em-ObhwTOqatW9LkcrSO-65" value="Recommendation System&amp;nbsp;" style="shape=umlFrame;whiteSpace=wrap;html=1;pointerEvents=0;width=180;height=30;" vertex="1" parent="1">
          <mxGeometry x="2190" y="920" width="560" height="400" as="geometry" />
        </mxCell>
        <mxCell id="em-ObhwTOqatW9LkcrSO-66" value="" style="rounded=0;whiteSpace=wrap;html=1;fillColor=none;" vertex="1" parent="1">
          <mxGeometry x="800" y="20" width="2500" height="1480" as="geometry" />
        </mxCell>
        <mxCell id="em-ObhwTOqatW9LkcrSO-68" value="Post feedback" style="text;html=1;strokeColor=none;fillColor=none;align=center;verticalAlign=middle;whiteSpace=wrap;rounded=0;" vertex="1" parent="1">
          <mxGeometry x="800" y="20" width="60" height="30" as="geometry" />
        </mxCell>
        <mxCell id="em-ObhwTOqatW9LkcrSO-70" style="edgeStyle=orthogonalEdgeStyle;rounded=0;orthogonalLoop=1;jettySize=auto;html=1;entryX=0;entryY=0.5;entryDx=0;entryDy=0;" edge="1" parent="1" source="em-ObhwTOqatW9LkcrSO-69" target="em-ObhwTOqatW9LkcrSO-68">
          <mxGeometry relative="1" as="geometry" />
        </mxCell>
        <mxCell id="em-ObhwTOqatW9LkcrSO-71" style="edgeStyle=orthogonalEdgeStyle;rounded=0;orthogonalLoop=1;jettySize=auto;html=1;" edge="1" parent="1" source="em-ObhwTOqatW9LkcrSO-69" target="em-ObhwTOqatW9LkcrSO-66">
          <mxGeometry relative="1" as="geometry" />
        </mxCell>
        <mxCell id="em-ObhwTOqatW9LkcrSO-72" style="edgeStyle=orthogonalEdgeStyle;rounded=0;orthogonalLoop=1;jettySize=auto;html=1;entryX=0.136;entryY=0.095;entryDx=0;entryDy=0;entryPerimeter=0;" edge="1" parent="1" source="em-ObhwTOqatW9LkcrSO-69" target="em-ObhwTOqatW9LkcrSO-66">
          <mxGeometry relative="1" as="geometry">
            <Array as="points">
              <mxPoint x="1140" y="100" />
            </Array>
          </mxGeometry>
        </mxCell>
        <mxCell id="em-ObhwTOqatW9LkcrSO-69" value="Frontend" style="rounded=0;whiteSpace=wrap;html=1;" vertex="1" parent="1">
          <mxGeometry x="520" y="70" width="120" height="60" as="geometry" />
        </mxCell>
        <mxCell id="em-ObhwTOqatW9LkcrSO-73" value="" style="shape=datastore;whiteSpace=wrap;html=1;" vertex="1" parent="1">
          <mxGeometry x="1241" y="570" width="60" height="60" as="geometry" />
        </mxCell>
      </root>
    </mxGraphModel>
  </diagram>
</mxfile>
